# xmcd
#
# Track frame offsets: 
#        150
#        20310
#        32582
#        57632
#        73462
#        95993
#        113571
#        135559
#        179460
#        199188
#        218924
#        240841
#        261382
#        270182
#        289174
#
# Disc length: 3999 seconds
#
# Revision: 0
# Processed by: cddbd v1.5.2PL0 Copyright (c) Steve Scherf et al.
# Submitted via: ExactAudioCopy v1.0b3
#
DISCID=e30f9d0f
DTITLE=Roger Cotton - A Long Way Back
DYEAR=2008
DGENRE=Blues
TTITLE0=Unknown Artist - Nice Girl Like You
TTITLE1=Unknown Artist - No Time For You
TTITLE2=Unknown Artist - Real World
TTITLE3=Unknown Artist - Nothin' Gonna Change It
TTITLE4=Unknown Artist - I Can't Change
TTITLE5=Unknown Artist - Dangerous Man
TTITLE6=Unknown Artist - Monday Monday
TTITLE7=Unknown Artist - A Day In New York
TTITLE8=Unknown Artist - A Long Way Back
TTITLE9=Unknown Artist - I'm Already Gone
TTITLE10=Unknown Artist - Private Number
TTITLE11=Unknown Artist - The Mission
TTITLE12=Unknown Artist - Downtown Manhattan
TTITLE13=Unknown Artist - She's The Wild Wind
TTITLE14=Unknown Artist - Dreams Of Flying Away
EXTD=
EXTT0=
EXTT1=
EXTT2=
EXTT3=
EXTT4=
EXTT5=
EXTT6=
EXTT7=
EXTT8=
EXTT9=
EXTT10=
EXTT11=
EXTT12=
EXTT13=
EXTT14=
PLAYORDER=
